<svg id="e5e9h7EoDlM1" xmlns="http://www.w3.org/2000/svg" xmlns:xlink="http://www.w3.org/1999/xlink"
    viewBox="0 0 700 400" shape-rendering="geometricPrecision" text-rendering="geometricPrecision">
    <defs>
        <filter id="e5e9h7EoDlM6-filter" x="-150%" width="400%" y="-150%" height="400%">
            <feGaussianBlur id="e5e9h7EoDlM6-filter-blur-0" stdDeviation="4,4" result="result" />
        </filter>
        <filter id="e5e9h7EoDlM7-filter" x="-150%" width="400%" y="-150%" height="400%">
            <feGaussianBlur id="e5e9h7EoDlM7-filter-blur-0" stdDeviation="4,4" result="result" />
        </filter>
        <linearGradient id="e5e9h7EoDlM8-fill" x1="0.791691" y1="0.874398" x2="0.117174"
            y2="0.095549" spreadMethod="pad" gradientUnits="objectBoundingBox"
            gradientTransform="translate(0 0)">
            <stop id="e5e9h7EoDlM8-fill-0" offset="0%" stop-color="#f7931e" />
            <stop id="e5e9h7EoDlM8-fill-1" offset="100%" stop-color="#ff0" />
        </linearGradient>
        <linearGradient id="e5e9h7EoDlM8-stroke" x1="0.121726" y1="0.129493" x2="0.615527"
            y2="0.936272" spreadMethod="pad" gradientUnits="objectBoundingBox"
            gradientTransform="translate(0 0)">
            <stop id="e5e9h7EoDlM8-stroke-0" offset="0%" stop-color="#ff0" />
            <stop id="e5e9h7EoDlM8-stroke-1" offset="100%" stop-color="#f7931e" />
        </linearGradient>
        <linearGradient id="e5e9h7EoDlM9-fill" x1="0.791691" y1="0.874398" x2="0.117174"
            y2="0.095549" spreadMethod="pad" gradientUnits="objectBoundingBox"
            gradientTransform="translate(0 0)">
            <stop id="e5e9h7EoDlM9-fill-0" offset="0%" stop-color="#f7931e" />
            <stop id="e5e9h7EoDlM9-fill-1" offset="100%" stop-color="#ff0" />
        </linearGradient>
        <linearGradient id="e5e9h7EoDlM9-stroke" x1="0.121726" y1="0.129493" x2="0.615527"
            y2="0.936272" spreadMethod="pad" gradientUnits="objectBoundingBox"
            gradientTransform="translate(0 0)">
            <stop id="e5e9h7EoDlM9-stroke-0" offset="0%" stop-color="#ff0" />
            <stop id="e5e9h7EoDlM9-stroke-1" offset="100%" stop-color="#f7931e" />
        </linearGradient>
        <filter id="e5e9h7EoDlM24-filter" x="-150%" width="400%" y="-150%" height="400%">
            <feGaussianBlur id="e5e9h7EoDlM24-filter-blur-0" stdDeviation="4,4" result="result" />
        </filter>
        <linearGradient id="e5e9h7EoDlM26-fill" x1="42.51" y1="54.59" x2="88.31" y2="77.93"
            spreadMethod="pad" gradientUnits="userSpaceOnUse" gradientTransform="translate(0 0)">
            <stop id="e5e9h7EoDlM26-fill-0" offset="1%" stop-color="#a24fdf" />
            <stop id="e5e9h7EoDlM26-fill-1" offset="100%" stop-color="#fffff2" />
        </linearGradient>
        <filter id="e5e9h7EoDlM29-filter" x="-150%" width="400%" y="-150%" height="400%">
            <feGaussianBlur id="e5e9h7EoDlM29-filter-blur-0" stdDeviation="4,4" result="result" />
        </filter>
        <linearGradient id="e5e9h7EoDlM30-fill" x1="9.63" y1="18.93" x2="-11.44" y2="-22.49"
            spreadMethod="pad" gradientUnits="userSpaceOnUse" gradientTransform="translate(0 0)">
            <stop id="e5e9h7EoDlM30-fill-0" offset="1%" stop-color="#4159df" />
            <stop id="e5e9h7EoDlM30-fill-1" offset="100%" stop-color="#00cbf2" />
        </linearGradient>
        <filter id="e5e9h7EoDlM35-filter" x="-150%" width="400%" y="-150%" height="400%">
            <feGaussianBlur id="e5e9h7EoDlM35-filter-blur-0" stdDeviation="4,4" result="result" />
        </filter>
        <linearGradient id="e5e9h7EoDlM36-fill" x1="105.44" y1="86.07" x2="40.4" y2="45.14"
            spreadMethod="pad" gradientUnits="userSpaceOnUse" gradientTransform="translate(0 0)">
            <stop id="e5e9h7EoDlM36-fill-0" offset="0%" stop-color="#3156ff" />
            <stop id="e5e9h7EoDlM36-fill-1" offset="100%" stop-color="#e251ff" />
        </linearGradient>
        <filter id="e5e9h7EoDlM44-filter" x="-150%" width="400%" y="-150%" height="400%">
            <feGaussianBlur id="e5e9h7EoDlM44-filter-blur-0" stdDeviation="4,4" result="result" />
        </filter>
        <linearGradient id="e5e9h7EoDlM45-fill" x1="78.462172" y1="102.06442" x2="59.370283"
            y2="40.418831" spreadMethod="pad" gradientUnits="userSpaceOnUse"
            gradientTransform="translate(0 0)">
            <stop id="e5e9h7EoDlM45-fill-0" offset="0%" stop-color="#00ba70" />
            <stop id="e5e9h7EoDlM45-fill-1" offset="100%" stop-color="#17ff8c" />
        </linearGradient>
        <filter id="e5e9h7EoDlM50-filter" x="-150%" width="400%" y="-150%" height="400%">
            <feGaussianBlur id="e5e9h7EoDlM50-filter-blur-0" stdDeviation="4,4" result="result" />
        </filter>
        <linearGradient id="e5e9h7EoDlM51-fill" x1="78.462172" y1="102.06442" x2="59.370283"
            y2="40.418831" spreadMethod="pad" gradientUnits="userSpaceOnUse"
            gradientTransform="translate(0 0)">
            <stop id="e5e9h7EoDlM51-fill-0" offset="0%" stop-color="#00ba70" />
            <stop id="e5e9h7EoDlM51-fill-1" offset="100%" stop-color="#17ff8c" />
        </linearGradient>
        <filter id="e5e9h7EoDlM53-filter" x="-150%" width="400%" y="-150%" height="400%">
            <feGaussianBlur id="e5e9h7EoDlM53-filter-blur-0" stdDeviation="4,4" result="result" />
        </filter>
        <linearGradient id="e5e9h7EoDlM54-fill" x1="103.15" y1="77.42" x2="34.78" y2="53.99"
            spreadMethod="pad" gradientUnits="userSpaceOnUse" gradientTransform="translate(0 0)">
            <stop id="e5e9h7EoDlM54-fill-0" offset="0%" stop-color="#759fff" />
            <stop id="e5e9h7EoDlM54-fill-1" offset="100%" stop-color="#3e75ff" />
        </linearGradient>
        <linearGradient id="e5e9h7EoDlM58-fill" x1="103.15" y1="77.42" x2="34.78" y2="53.99"
            spreadMethod="pad" gradientUnits="userSpaceOnUse" gradientTransform="translate(0 0)">
            <stop id="e5e9h7EoDlM58-fill-0" offset="0%" stop-color="#759fff" />
            <stop id="e5e9h7EoDlM58-fill-1" offset="100%" stop-color="#3e75ff" />
        </linearGradient>
    </defs>
    <g transform="matrix(1.5625 0 0 1.5625 43.231082 0)">
        <rect width="448.000014" height="256" rx="0" ry="0" transform="translate(-27.667906 0)"
            fill="#141d3e" stroke-width="0" />
        <g transform="translate(125 0)">
            <path id="e5e9h7EoDlM6"
                d="M69.0592,36.325926c0,0,0,0,0,0s0,0,0,0s0,0,0,0v-.04209-.04209c0,0,0,.04209,0,.04209v0c0,0,0,0,0,0v0c0,0,0,.04209,0,.04209Z"
                transform="translate(5.000002 5.000003)" opacity="0.4"
                filter="url(#e5e9h7EoDlM6-filter)" stroke="#000" stroke-width="4"
                stroke-linecap="round" stroke-linejoin="round" />
            <path id="e5e9h7EoDlM7"
                d="M45.237506,68.030019c-1.238658.04-1.76-.56-.86-1.74.035751-.012816,22.095165-26.7801,22.092951-26.863876c1.031365-1.178703,1.952227-.067341,1.583882,1.068199L63.345335,59.965897l19.624985-.02322c1.299744.032963,1.222756,1.022438.597038,1.821818L61.520252,88.576228c-.852339.940066-1.96.779668-1.68-.6l4.816412-19.83222c0,0-19.419158-.113989-19.419158-.113989Z"
                transform="translate(5.000002 5.000003)" opacity="0.4"
                filter="url(#e5e9h7EoDlM7-filter)" stroke="#000" stroke-width="4"
                stroke-linecap="round" stroke-linejoin="round" />
            <path id="e5e9h7EoDlM8"
                d="M45.237506,68.030019c-1.238658.04-1.76-.56-.86-1.74.035751-.012816,22.095165-26.7801,22.092951-26.863876c1.031365-1.178703,1.952227-.067341,1.583882,1.068199L63.345335,59.965897l19.624985-.02322c1.299744.032963,1.222756,1.022438.597038,1.821818L61.520252,88.576228c-.852339.940066-1.96.779668-1.68-.6l4.816412-19.83222c0,0-19.419158-.113989-19.419158-.113989Z"
                transform="translate(.000002 0.000003)" fill="url(#e5e9h7EoDlM8-fill)"
                stroke="url(#e5e9h7EoDlM8-stroke)" stroke-width="4" stroke-linecap="round"
                stroke-linejoin="round" />
            <path id="e5e9h7EoDlM9"
                d="M69.0592,36.325926c0,0,0,0,0,0s0,0,0,0s0,0,0,0v-.04209-.04209c0,0,0,.04209,0,.04209v0c0,0,0,0,0,0v0c0,0,0,.04209,0,.04209Z"
                transform="translate(.000002 0.000003)" fill="url(#e5e9h7EoDlM9-fill)"
                stroke="url(#e5e9h7EoDlM9-stroke)" stroke-width="4" stroke-linecap="round" />
            <path id="e5e9h7EoDlM10" d="M49.618217,91.668624l-7.644221-4.49682"
                transform="matrix(-.405366 0.914155-.914155-.405366 177.568207 85.684858)"
                opacity="0" fill="none" stroke="#f9a51a" stroke-width="4" stroke-linecap="round"
                stroke-linejoin="round" stroke-dashoffset="17.74" stroke-dasharray="0.01,8.87" />
            <path id="e5e9h7EoDlM11" d="M49.618217,91.668624l-7.644221-4.49682"
                transform="translate(.000001 0)" opacity="0" fill="none" stroke="#f9a51a"
                stroke-width="4" stroke-linecap="round" stroke-linejoin="round"
                stroke-dashoffset="17.74" stroke-dasharray="0.01,8.87" />
            <path id="e5e9h7EoDlM12" d="M49.618217,91.668624l-7.644221-4.49682"
                transform="matrix(.873063 0.487608-.487608 0.873063 56.006801-15.806673)"
                opacity="0" fill="none" stroke="#f9a51a" stroke-width="4" stroke-linecap="round"
                stroke-linejoin="round" stroke-dashoffset="17.74" stroke-dasharray="0.01,8.87" />
            <path id="e5e9h7EoDlM13" d="M49.618217,91.668624l-7.644221-4.49682"
                transform="matrix(-.173828 0.984776-.984776-.173828 168.635415 55.966987)"
                opacity="0" fill="none" stroke="#f9a51a" stroke-width="4" stroke-linecap="round"
                stroke-linejoin="round" stroke-dashoffset="17.74" stroke-dasharray="0.01,8.87" />
        </g>
        <g id="e5e9h7EoDlM14" transform="translate(0 0.000001)">
            <ellipse id="e5e9h7EoDlM15" rx="6.106699" ry="6.109795"
                transform="matrix(0 0 0 0 35.883293 92.114745)" fill="#fff" stroke-width="0" />
            <ellipse id="e5e9h7EoDlM16" rx="6.106699" ry="6.109795"
                transform="matrix(0 0 0 0 42 42)" fill="#fff" stroke-width="0" />
            <ellipse id="e5e9h7EoDlM17" rx="6.106699" ry="6.109795"
                transform="matrix(0 0 0 0 42 42)" fill="#fff" stroke-width="0" />
            <ellipse id="e5e9h7EoDlM18" rx="6.106699" ry="6.109795"
                transform="matrix(0 0 0 0 42 42)" fill="#fff" stroke-width="0" />
            <ellipse id="e5e9h7EoDlM19" rx="6.106699" ry="6.109795"
                transform="matrix(0 0 0 0 92.116707 35.885255)" fill="#fff" stroke-width="0" />
            <path id="e5e9h7EoDlM20"
                d="M35.883293,92.114745C35.883293,92.114745,42,42,42,42s50.116707-6.114746,50.116707-6.114746"
                transform="translate(0 0.000002)" opacity="0" fill="none" stroke="#fff"
                stroke-width="2" stroke-dashoffset="50.49" stroke-dasharray="0,100.98" />
            <line id="e5e9h7EoDlM21" x1="-18.622902" y1="18.622902" x2="18.622902" y2="-18.622902"
                transform="translate(42 42)" fill="none" stroke="#fff" stroke-width="1.2"
                stroke-dashoffset="26.34" stroke-dasharray="0,52.67" />
        </g>
        <g id="e5e9h7EoDlM22" transform="translate(.000017 0.00004)">
            <g id="e5e9h7EoDlM23"
                transform="matrix(-.707107-.707107 0.707107-.707107 69.707107 157.802561)">
                <path
                    d="M79,88c0,2.209139-1.790861,4-4,4h-22c-2.209139,0-4-1.790861-4-4s1.790861-4,4-4h22c2.209139,0,4,1.790861,4,4Zm-5-8l7-20L66,34v25.42c2.17003.947079,3.378275,3.28637,2.894532,5.604124s-2.526835,3.978452-4.894532,3.978452-4.410788-1.660698-4.894532-3.978452.724502-4.657045,2.894532-5.604124L62,34L47,60l7,20Z"
                    opacity="0.4" filter="url(#e5e9h7EoDlM24-filter)" fill-rule="evenodd" />
            </g>
            <g id="e5e9h7EoDlM25"
                transform="matrix(-.707107-.707107 0.707107-.707107 64.707107 152.802561)">
                <path
                    d="M79,88c0,2.209139-1.790861,4-4,4h-22c-2.209139,0-4-1.790861-4-4s1.790861-4,4-4h22c2.209139,0,4,1.790861,4,4Zm-5-8l7-20L66,34v25.42c2.17003.947079,3.378275,3.28637,2.894532,5.604124s-2.526835,3.978452-4.894532,3.978452-4.410788-1.660698-4.894532-3.978452.724502-4.657045,2.894532-5.604124L62,34L47,60l7,20Z"
                    fill="url(#e5e9h7EoDlM26-fill)" fill-rule="evenodd" />
            </g>
        </g>
        <g transform="translate(2.500017 114)">
            <g id="e5e9h7EoDlM28" transform="translate(0 6)">
                <circle r="24" transform="translate(69 70)" opacity="0.4"
                    filter="url(#e5e9h7EoDlM29-filter)" />
                <circle r="24" transform="translate(64 65)" fill="url(#e5e9h7EoDlM30-fill)" />
                <line id="e5e9h7EoDlM31" x1="64" y1="48" x2="64" y2="65" fill="none" stroke="#fff"
                    stroke-width="4" stroke-linecap="round" stroke-linejoin="round" />
                <line id="e5e9h7EoDlM32" x1="72.56" y1="62.22" x2="64" y2="65" fill="none"
                    stroke="#fff" stroke-width="4" stroke-linecap="round" stroke-linejoin="round" />
                <path id="e5e9h7EoDlM33"
                    d="M59.5,32c-1.380712,0-2.5,1.119288-2.5,2.5s1.119288,2.5,2.5,2.5h9c1.380712,0,2.5-1.119288,2.5-2.5s-1.119288-2.5-2.5-2.5Z"
                    fill="#08c4f1" />
            </g>
        </g>
        <g transform="translate(123.100634 118.270225)">
            <path
                d="M92,60c0-11.59798-9.40202-21-21-21h-14c-11.59798-.140833-21.114167,9.14702-21.255,20.745s9.14702,21.114167,20.745,21.255L64,88.49L71.51,81C82.908334,80.723102,92.003363,71.401697,92,60Z"
                transform="translate(3.998269 3.995775)" opacity="0.4"
                filter="url(#e5e9h7EoDlM35-filter)" />
            <path id="e5e9h7EoDlM36"
                d="M92,60c0-11.59798-9.40202-21-21-21-4.2,0-9.800077.025499-14,0-11.598621-.070418-21.114167,9.14702-21.255,20.745s8.656165,21.255,20.255,21.255c1,2,8,7.49,8,7.49s6-5.49,7.51-7.49C82.911697,81,92.003363,71.401697,92,60Z"
                fill="url(#e5e9h7EoDlM36-fill)" />
            <g>
                <circle id="e5e9h7EoDlM38" r="4" transform="matrix(.8 0 0 0.8 50 60)" fill="#fff" />
                <circle id="e5e9h7EoDlM39" r="4" transform="matrix(.8 0 0 0.8 63.771142 60.103126)"
                    fill="#fff" />
                <circle id="e5e9h7EoDlM40" r="4" transform="matrix(.8 0 0 0.8 78.055998 60.053648)"
                    fill="#fff" />
            </g>
        </g>
        <g transform="translate(239.682658 121.374136)">
            <g id="e5e9h7EoDlM42"
                transform="matrix(.951057-.309017 0.309017 0.951057-20.159862 19.102965)">
                <g id="e5e9h7EoDlM43" transform="matrix(.9 0 0 0.9 15.36979 4.928744)">
                    <path
                        d="M74.07,93.21L91.7,41.37c.486913-1.44097.114444-3.033407-.961075-4.108925s-2.667955-1.447988-4.108925-.961075L34.79,53.93c-1.530643.517956-2.599305,1.905998-2.708681,3.518197s.76202,3.131859,2.208681,3.851803l17.14,8.57c1.584549.745089,3.466494.412746,4.7-.83L71.69,53.48c.781483-.781483,2.048517-.781483,2.83,0s.781483,2.048517,0,2.83L58.88,72c-1.218936,1.217742-1.52112,3.079197-.75,4.62L66.7,93.71c.719944,1.446661,2.239605,2.318056,3.851803,2.208681s3.000241-1.178038,3.518197-2.708681Z"
                        transform="matrix(.941056 0.338251-.338251 0.941056 19.684394-4.078972)"
                        opacity="0.4" filter="url(#e5e9h7EoDlM44-filter)" />
                    <path
                        d="M74.07,93.21L91.7,41.37c.486913-1.44097.114444-3.033407-.961075-4.108925s-2.667955-1.447988-4.108925-.961075L34.79,53.93c-1.530643.517956-2.599305,1.905998-2.708681,3.518197s.76202,3.131859,2.208681,3.851803l17.14,8.57c1.584549.745089,3.466494.412746,4.7-.83L71.69,53.48c.781483-.781483,2.048517-.781483,2.83,0s.781483,2.048517,0,2.83L58.88,72c-1.218936,1.217742-1.52112,3.079197-.75,4.62L66.7,93.71c.719944,1.446661,2.239605,2.318056,3.851803,2.208681s3.000241-1.178038,3.518197-2.708681Z"
                        transform="matrix(.951057 0.309017-.309017 0.951057 14.29362-10.202002)"
                        fill="url(#e5e9h7EoDlM45-fill)" />
                    <g mask="url(#e5e9h7EoDlM48)">
                        <path id="e5e9h7EoDlM47"
                            d="M45.947735,78.555281c0,0-2.226081,13.498891-2.440631,15.270358-.458364,3.784561,1.081023,5.414205,2.146441,4.040534c1.577759-2.034245,2.364437-3.053075,2.364437-3.053075s-2.08045-16.444572-2.070247-16.257817Z"
                            transform="matrix(.858009-.513634 0.180311 0.301203-10.873606 77.328513)"
                            fill="#08d47a" stroke-width="0.256" />
                        <mask id="e5e9h7EoDlM48" mask-type="luminance" x="-150%" y="-150%"
                            height="400%" width="400%">
                            <path
                                d="M42.492904,77.38726l3.712314,26.391229-6.612116.73525L36.161029,79.09367q6.249809-1.624339,6.331875-1.70641Z"
                                transform="translate(.000001 0.000003)" fill="#fff"
                                stroke-width="0.256" />
                        </mask>
                    </g>
                </g>
            </g>
            <path id="e5e9h7EoDlM50"
                d="M74.07,93.21L91.7,41.37c.486913-1.44097.114444-3.033407-.961075-4.108925s-2.667955-1.447988-4.108925-.961075L34.79,53.93c-1.530643.517956-2.599305,1.905998-2.708681,3.518197s.76202,3.131859,2.208681,3.851803l17.14,8.57c1.584549.745089,3.466494.412746,4.7-.83L71.69,53.48c.781483-.781483,2.048517-.781483,2.83,0s.781483,2.048517,0,2.83L58.88,72c-1.218936,1.217742-1.52112,3.079197-.75,4.62L66.7,93.71c.719944,1.446661,2.239605,2.318056,3.851803,2.208681s3.000241-1.178038,3.518197-2.708681Z"
                transform="matrix(0 0 0 0 60.01132 69.016259)" opacity="0.4"
                filter="url(#e5e9h7EoDlM50-filter)" />
            <path id="e5e9h7EoDlM51"
                d="M74.07,93.21L91.7,41.37c.486913-1.44097.114444-3.033407-.961075-4.108925s-2.667955-1.447988-4.108925-.961075L34.79,53.93c-1.530643.517956-2.599305,1.905998-2.708681,3.518197s.76202,3.131859,2.208681,3.851803l17.14,8.57c1.584549.745089,3.466494.412746,4.7-.83L71.69,53.48c.781483-.781483,2.048517-.781483,2.83,0s.781483,2.048517,0,2.83L58.88,72c-1.218936,1.217742-1.52112,3.079197-.75,4.62L66.7,93.71c.719944,1.446661,2.239605,2.318056,3.851803,2.208681s3.000241-1.178038,3.518197-2.708681Z"
                transform="matrix(0 0 0 0 61.170235 65.741081)" fill="url(#e5e9h7EoDlM51-fill)" />
        </g>
        <g transform="translate(239.686872-2.21996)">
            <path id="e5e9h7EoDlM53"
                d="M48.65,38h30.7c2.824556,0,5.533425,1.12205,7.530687,3.119313s3.119313,4.706131,3.119313,7.530687v15.55C90,78.448947,78.448947,90,64.2,90h-15.55c-2.824556,0-5.533425-1.12205-7.530687-3.119313s-3.119313-4.706131-3.119313-7.530687v-30.7C38,42.768167,42.768168,38,48.65,38Z"
                transform="translate(5 5)" opacity="0.4" filter="url(#e5e9h7EoDlM53-filter)" />
            <path id="e5e9h7EoDlM54"
                d="M48.65,38h30.7c2.824556,0,5.533425,1.12205,7.530687,3.119313s3.119313,4.706131,3.119313,7.530687v12.55C90,75.448947,75.448947,90,61.2,90h-12.55c-2.824556,0-5.533425-1.12205-7.530687-3.119313s-3.119313-4.706131-3.119313-7.530687v-30.7C38,42.768167,42.768168,38,48.65,38Z"
                fill="url(#e5e9h7EoDlM54-fill)" />
            <line x1="56" y1="47" x2="56" y2="65" fill="none" stroke="#fff" stroke-width="4"
                stroke-linecap="round" stroke-miterlimit="10" stroke-dashoffset="36"
                stroke-dasharray="18" />
            <line x1="56" y1="47" x2="56" y2="65" transform="matrix(0 1-1 0 112 0)" fill="none"
                stroke="#fff" stroke-width="4" stroke-linecap="round" stroke-miterlimit="10"
                stroke-dashoffset="36" stroke-dasharray="18" />
            <g id="e5e9h7EoDlM57" transform="translate(.000002 0.000002)">
                <path
                    d="M48.65,38h30.7c2.824556,0,5.533425,1.12205,7.530687,3.119313s3.119313,4.706131,3.119313,7.530687v12.55C90,75.448947,75.448947,90,61.2,90h-12.55c-2.824556,0-5.533425-1.12205-7.530687-3.119313s-3.119313-4.706131-3.119313-7.530687v-30.7C38,42.768167,42.768168,38,48.65,38Z"
                    fill="url(#e5e9h7EoDlM58-fill)" />
                <line id="e5e9h7EoDlM59" x1="81" y1="56" x2="47" y2="56"
                    transform="matrix(-1 0 0-1 128 112)" fill="none" stroke="#fff" stroke-width="4"
                    stroke-linecap="round" stroke-miterlimit="10" stroke-dasharray="18,16" />
                <line id="e5e9h7EoDlM60" x1="56" y1="47" x2="56" y2="65" fill="none" stroke="#fff"
                    stroke-width="4" stroke-linecap="round" stroke-miterlimit="10"
                    stroke-dashoffset="36" stroke-dasharray="18" />
                <line id="e5e9h7EoDlM61" x1="56" y1="47" x2="56" y2="65"
                    transform="matrix(0 1-1 0 112 5)" fill="none" stroke="#fff" stroke-width="4"
                    stroke-linecap="round" stroke-miterlimit="10" stroke-dashoffset="18"
                    stroke-dasharray="18" />
                <path id="e5e9h7EoDlM62"
                    d="M69.34,79.67v0c.002662,2.742235-1.086192,5.372775-3.026184,7.310891s-4.571585,3.024425-7.313816,3.019109h5.2C78.430714,89.956078,89.956078,78.430714,90,64.2v-5.2c.005316,2.742231-1.080993,5.373824-3.019109,7.313816s-4.568656,3.028846-7.310891,3.026184v0c-5.702816.005513-10.324487,4.627184-10.33,10.33Z"
                    fill="#0443a8" />
            </g>
            <path id="e5e9h7EoDlM63"
                d="M78.061481,89.578242v0C76.393606,90,72.2,90,72.2,90s2.742231.005316,0,0v0c14.230714-.043922,17.756078-3.569286,17.8-17.8v0c.005316,2.742231,0,0,0,0s0,7.15-1.011064,9.153894v0c-1.437823,5.526793-4.773572,7.591706-10.927455,8.224348Z"
                opacity="0" fill="#0443a8" />
        </g>
    </g>
    <script><![CDATA[
(function(s,i,u,o,c,w,d,t,n,x,e,p,a,b){(a=Array.from(d.querySelectorAll('svg#' + i.root)).filter(n=> !n.svgatorPlayer)[0]||{}).svgatorPlayer={ready:(function(a){b=[];return function(c){return c?(b.push(c),a.svgatorPlayer):b}})(a)};w[o]=w[o]||{};w[o][s]=w[o][s]||[];w[o][s].push(i);e=d.createElementNS(n,t);e.async=true;e.setAttributeNS(x,'href',[u,s,'.','j','s','?','v','=',c].join(''));e.setAttributeNS(null,'src',[u,s,'.','j','s','?','v','=',c].join(''));p=d.getElementsByTagName(t)[0];p.parentNode.insertBefore(e,p);})('91c80d77',{"root":"e5e9h7EoDlM1","version":"2022-05-04","animations":[{"elements":{"e5e9h7EoDlM6":{"d":[{"t":1300,"v":["M",69.0592,36.325926,"C",69.0592,36.325926,69.0592,36.325926,69.0592,36.325926,"C",69.0592,36.325926,69.0592,36.325926,69.0592,36.325926,"C",69.0592,36.325926,69.0592,36.325926,69.0592,36.325926,"L",69.0592,36.283836,"L",69.0592,36.241746,"C",69.0592,36.241746,69.0592,36.283836,69.0592,36.283836,"L",69.0592,36.283836,"C",69.0592,36.283836,69.0592,36.283836,69.0592,36.283836,"L",69.0592,36.283836,"C",69.0592,36.283836,69.0592,36.325926,69.0592,36.325926,"Z"]},{"t":1390,"v":["M",54.628222,59.258841,"C",53.991198,59.279413,53.723079,58.970841,54.185936,58.363984,"C",54.204323,58.357393,67.728985,37.963408,67.727846,37.920323,"C",68.258263,37.314133,68.731849,37.885691,68.542414,38.469683,"L",54.628222,58.363984,"L",80.557832,59.258841,"C",81.226272,59.275794,81.186678,59.80511,80.86488,60.21622,"L",64.863998,81.075198,"C",64.425652,81.558661,63.855998,81.47617,63.999998,80.766627,"L",75.494458,60.21622,"C",75.494458,60.21622,54.628222,59.258841,54.628222,59.258841,"Z"]},{"t":1480,"v":["M",45.237506,68.030019,"C",43.998848,68.070019,43.477506,67.470019,44.377506,66.290019,"C",44.413257,66.277203,66.472671,39.509919,66.470457,39.426143,"C",67.501822,38.24744,68.422684,39.358802,68.054339,40.494342,"L",63.345335,59.965897,"L",82.97032,59.942677,"C",84.270064,59.97564,84.193076,60.965115,83.567358,61.764495,"L",61.520252,88.576228,"C",60.667913,89.516294,59.560252,89.355896,59.840252,87.976228,"L",64.656664,68.144008,"C",64.656664,68.144008,45.237506,68.030019,45.237506,68.030019,"Z"]}],"fill-opacity":[{"t":1480,"v":1,"e":[1,0]},{"t":1580,"v":0,"e":[1,0]},{"t":1680,"v":0,"e":[1,0]},{"t":1780,"v":1,"e":[1,0]},{"t":1880,"v":0,"e":[1,0]},{"t":1980,"v":1}]},"e5e9h7EoDlM7":{"transform":{"data":{"o":{"x":60.136857,"y":90.954228,"type":"corner"},"t":{"x":-55.136855,"y":-85.954225}},"keys":{"s":[{"t":1000,"v":{"x":1,"y":1},"e":[0.55,0.055,0.675,0.19]},{"t":1300,"v":{"x":0,"y":0}}]}}},"e5e9h7EoDlM8":{"transform":{"data":{"o":{"x":60.136857,"y":90.597209,"type":"corner"},"t":{"x":-60.136855,"y":-90.597206}},"keys":{"s":[{"t":1000,"v":{"x":1,"y":1},"e":[0.55,0.055,0.675,0.19]},{"t":1300,"v":{"x":0,"y":0}}]}}},"e5e9h7EoDlM9":{"d":[{"t":1300,"v":["M",69.0592,36.325926,"C",69.0592,36.325926,69.0592,36.325926,69.0592,36.325926,"C",69.0592,36.325926,69.0592,36.325926,69.0592,36.325926,"C",69.0592,36.325926,69.0592,36.325926,69.0592,36.325926,"L",69.0592,36.283836,"L",69.0592,36.241746,"C",69.0592,36.241746,69.0592,36.283836,69.0592,36.283836,"L",69.0592,36.283836,"C",69.0592,36.283836,69.0592,36.283836,69.0592,36.283836,"L",69.0592,36.283836,"C",69.0592,36.283836,69.0592,36.325926,69.0592,36.325926,"Z"]},{"t":1390,"v":["M",54.628222,59.258841,"C",53.991198,59.279413,53.723079,58.970841,54.185936,58.363984,"C",54.204323,58.357393,67.728985,37.963408,67.727846,37.920323,"C",68.258263,37.314133,68.731849,37.885691,68.542414,38.469683,"L",54.628222,58.363984,"L",80.557832,59.258841,"C",81.226272,59.275794,81.186678,59.80511,80.86488,60.21622,"L",64.863998,81.075198,"C",64.425652,81.558661,63.855998,81.47617,63.999998,80.766627,"L",75.494458,60.21622,"C",75.494458,60.21622,54.628222,59.258841,54.628222,59.258841,"Z"]},{"t":1480,"v":["M",45.237506,68.030019,"C",43.998848,68.070019,43.477506,67.470019,44.377506,66.290019,"C",44.413257,66.277203,66.472671,39.509919,66.470457,39.426143,"C",67.501822,38.24744,68.422684,39.358802,68.054339,40.494342,"L",63.345335,59.965897,"L",82.97032,59.942677,"C",84.270064,59.97564,84.193076,60.965115,83.567358,61.764495,"L",61.520252,88.576228,"C",60.667913,89.516294,59.560252,89.355896,59.840252,87.976228,"L",64.656664,68.144008,"C",64.656664,68.144008,45.237506,68.030019,45.237506,68.030019,"Z"]}],"fill-opacity":[{"t":1480,"v":1,"e":[1,0]},{"t":1580,"v":0,"e":[1,0]},{"t":1680,"v":0,"e":[1,0]},{"t":1780,"v":1,"e":[1,0]},{"t":1880,"v":0,"e":[1,0]},{"t":1980,"v":1}]},"e5e9h7EoDlM10":{"opacity":[{"t":1610,"v":0},{"t":1620,"v":1},{"t":1800,"v":1},{"t":1810,"v":0}],"stroke-dashoffset":[{"t":1610,"v":17.74},{"t":1810,"v":8.9}],"stroke-dasharray":[{"t":1610,"v":[0.01,8.87]},{"t":1700,"v":[4,4.87]},{"t":1810,"v":[0.01,8.87]}]},"e5e9h7EoDlM11":{"opacity":[{"t":1480,"v":0},{"t":1490,"v":1},{"t":1670,"v":1},{"t":1680,"v":0}],"stroke-dashoffset":[{"t":1480,"v":17.74},{"t":1680,"v":8.9}],"stroke-dasharray":[{"t":1480,"v":[0.01,8.87]},{"t":1570,"v":[4,4.87]},{"t":1680,"v":[0.01,8.87]}]},"e5e9h7EoDlM12":{"opacity":[{"t":1600,"v":0},{"t":1610,"v":1},{"t":1790,"v":1},{"t":1800,"v":0}],"stroke-dashoffset":[{"t":1600,"v":17.74},{"t":1800,"v":8.9}],"stroke-dasharray":[{"t":1600,"v":[0.01,8.87]},{"t":1690,"v":[4,4.87]},{"t":1800,"v":[0.01,8.87]}]},"e5e9h7EoDlM13":{"opacity":[{"t":1530,"v":0},{"t":1540,"v":1},{"t":1720,"v":1},{"t":1730,"v":0}],"stroke-dashoffset":[{"t":1530,"v":17.74},{"t":1730,"v":8.9}],"stroke-dasharray":[{"t":1530,"v":[0.01,8.87]},{"t":1620,"v":[4,4.87]},{"t":1730,"v":[0.01,8.87]}]},"e5e9h7EoDlM14":{"opacity":[{"t":3400,"v":1},{"t":3900,"v":0}]},"e5e9h7EoDlM15":{"transform":{"data":{"o":{"x":35.883293,"y":92.114745,"type":"corner"}},"keys":{"s":[{"t":1800,"v":{"x":0,"y":0},"e":[0.175,0.885,0.32,1.275]},{"t":2000,"v":{"x":0.635907,"y":0.635906}}]}}},"e5e9h7EoDlM16":{"transform":{"data":{"o":{"x":42,"y":42,"type":"corner"}},"keys":{"s":[{"t":1600,"v":{"x":0,"y":0},"e":[0.175,0.885,0.32,1.275]},{"t":1800,"v":{"x":0.635907,"y":0.635906}}]}}},"e5e9h7EoDlM17":{"transform":{"keys":{"o":[{"t":2200,"v":{"x":42,"y":42,"type":"corner"},"e":[0.42,0,0.58,1]},{"t":2400,"v":{"x":60.622902,"y":23.376878,"type":"corner"}}],"s":[{"t":1600,"v":{"x":0,"y":0},"e":[0.175,0.885,0.32,1.275]},{"t":1800,"v":{"x":0.368291,"y":0.36829}}]}}},"e5e9h7EoDlM18":{"transform":{"keys":{"o":[{"t":2200,"v":{"x":42,"y":42,"type":"corner"},"e":[0.42,0,0.58,1]},{"t":2400,"v":{"x":23.377098,"y":60.622902,"type":"corner"}}],"s":[{"t":1600,"v":{"x":0,"y":0},"e":[0.175,0.885,0.32,1.275]},{"t":1800,"v":{"x":0.368291,"y":0.36829}}]}}},"e5e9h7EoDlM19":{"transform":{"data":{"o":{"x":92.116707,"y":35.885255,"type":"corner"}},"keys":{"s":[{"t":1800,"v":{"x":0,"y":0},"e":[0.175,0.885,0.32,1.275]},{"t":2000,"v":{"x":0.635907,"y":0.635906}}]}}},"e5e9h7EoDlM20":{"d":[{"t":2200,"v":["M",35.883293,92.114745,"C",35.883293,92.114745,42,42,42,42,"C",42,42,92.116707,35.885254,92.116707,35.885254],"e":[0.42,0,0.58,1]},{"t":2400,"v":["M",35.883293,92.114745,"C",35.883293,92.114745,23.377098,60.622904,42,42,"C",60.622902,23.377096,92.116707,35.885254,92.116707,35.885254]}],"opacity":[{"t":1790,"v":0},{"t":1800,"v":1}],"stroke-dashoffset":[{"t":1800,"v":50.49},{"t":2000,"v":100.98}],"stroke-dasharray":[{"t":1800,"v":[0,100.98]},{"t":2000,"v":[100.98,0]}]},"e5e9h7EoDlM21":{"stroke-dashoffset":[{"t":2200,"v":26.34,"e":[0.42,0,0.58,1]},{"t":2400,"v":52.67}],"stroke-dasharray":[{"t":2200,"v":[0,52.67],"e":[0.42,0,0.58,1]},{"t":2400,"v":[52.67,0]}]},"e5e9h7EoDlM22":{"transform":{"data":{"t":{"x":-41.999983,"y":-42.493889}},"keys":{"o":[{"t":1700,"v":{"x":42,"y":42.493929,"type":"corner"},"e":[0.215,0.61,0.355,1]},{"t":2000,"v":{"x":49.573327,"y":50.067256,"type":"corner"}},{"t":2200,"v":{"x":42,"y":42.493929,"type":"corner"},"e":[0.42,0,0.58,1]},{"t":2400,"v":{"x":60.613318,"y":23.376868,"type":"corner"}},{"t":2600,"v":{"x":49.368814,"y":50.414568,"type":"corner"}},{"t":3400,"v":{"x":49.368814,"y":50.414568,"type":"corner"},"e":[0.68,-0.55,0.265,1]},{"t":3900,"v":{"x":42,"y":42.493929,"type":"corner"},"e":[0.215,0.61,0.355,1]}],"s":[{"t":1600,"v":{"x":1,"y":1},"e":[0.42,0,1,1]},{"t":1700,"v":{"x":0.7,"y":0.7},"e":[0,0,0.58,1]},{"t":1800,"v":{"x":0.91,"y":0.9}},{"t":2000,"v":{"x":0.91,"y":0.9}},{"t":2100,"v":{"x":0.91,"y":0.9},"e":[0.42,0,1,1]},{"t":2200,"v":{"x":0.7,"y":0.7}},{"t":2400,"v":{"x":0.7,"y":0.7},"e":[0,0,0.58,1]},{"t":2500,"v":{"x":0.9,"y":0.9}},{"t":3400,"v":{"x":0.9,"y":0.9},"e":[0.68,-0.55,0.265,1]},{"t":3900,"v":{"x":1,"y":1},"e":[0.215,0.61,0.355,1]}]}}},"e5e9h7EoDlM23":{"transform":{"data":{"o":{"x":69,"y":68,"type":"corner"},"t":{"x":-64,"y":-63}},"keys":{"r":[{"t":1500,"v":-135,"e":[0.215,0.61,0.355,1]},{"t":1700,"v":-45},{"t":3400,"v":-45,"e":[0.68,-0.55,0.265,1]},{"t":3900,"v":-135,"e":[0.215,0.61,0.355,1]}]}}},"e5e9h7EoDlM25":{"transform":{"data":{"o":{"x":64,"y":63,"type":"corner"},"t":{"x":-64,"y":-63}},"keys":{"r":[{"t":1500,"v":-135,"e":[0.215,0.61,0.355,1]},{"t":1700,"v":-45},{"t":3400,"v":-45,"e":[0.68,-0.55,0.265,1]},{"t":3900,"v":-135,"e":[0.215,0.61,0.355,1]}]}}},"e5e9h7EoDlM28":{"transform":{"data":{"t":{"x":-64,"y":-65}},"keys":{"o":[{"t":1000,"v":{"x":64,"y":71,"type":"corner"},"e":[0.42,0,0.58,1]},{"t":1100,"v":{"x":64,"y":75,"type":"corner"},"e":[0.42,0,1,1]},{"t":1200,"v":{"x":64,"y":73,"type":"corner"}},{"t":3000,"v":{"x":64,"y":73,"type":"corner"}},{"t":3100,"v":{"x":64,"y":71,"type":"corner"}}]}}},"e5e9h7EoDlM31":{"transform":{"data":{"o":{"x":64,"y":65,"type":"corner"},"t":{"x":-64,"y":-65}},"keys":{"r":[{"t":1100,"v":0},{"t":3000,"v":1080}]}}},"e5e9h7EoDlM32":{"transform":{"data":{"o":{"x":64,"y":65,"type":"corner"},"t":{"x":-64,"y":-65}},"keys":{"r":[{"t":1100,"v":0},{"t":3000,"v":17.95457},{"t":3100,"v":0}]}}},"e5e9h7EoDlM33":{"transform":{"data":{"t":{"x":-64.000002,"y":-34.5}},"keys":{"o":[{"t":1000,"v":{"x":64.000002,"y":34.5,"type":"corner"},"e":[0,0,0.58,1]},{"t":1100,"v":{"x":64.000002,"y":38.5,"type":"corner"},"e":[0.42,0,1,1]},{"t":1200,"v":{"x":64.000002,"y":36.5,"type":"corner"}},{"t":3000,"v":{"x":64.000002,"y":36.5,"type":"corner"},"e":[0.42,0,1,1]},{"t":3100,"v":{"x":64.000002,"y":34.5,"type":"corner"}}]}}},"e5e9h7EoDlM36":{"fill":[{"t":1500,"v":{"t":"g","s":[{"c":{"r":49,"g":86,"b":255,"a":1},"o":0},{"c":{"r":226,"g":81,"b":255,"a":1},"o":1}],"r":"e5e9h7EoDlM36-fill","gt":[1,0,0,1,0,0],"f":{"x":105.44,"y":86.07},"to":{"x":40.4,"y":45.14}}},{"t":2500,"v":{"t":"g","s":[{"c":{"r":226,"g":81,"b":255,"a":1},"o":0},{"c":{"r":49,"g":86,"b":255,"a":1},"o":0.58},{"c":{"r":226,"g":81,"b":255,"a":1},"o":1}],"r":"e5e9h7EoDlM36-fill","gt":[1,0,0,1,0,0],"f":{"x":105.44,"y":86.07},"to":{"x":40.4,"y":45.14}}},{"t":3500,"v":{"t":"g","s":[{"c":{"r":226,"g":81,"b":255,"a":1},"o":0},{"c":{"r":49,"g":86,"b":255,"a":1},"o":0},{"c":{"r":226,"g":81,"b":255,"a":1},"o":1}],"r":"e5e9h7EoDlM36-fill","gt":[1,0,0,1,0,0],"f":{"x":105.44,"y":86.07},"to":{"x":40.4,"y":45.14}}}]},"e5e9h7EoDlM38":{"transform":{"keys":{"o":[{"t":1500,"v":{"x":50,"y":60,"type":"corner"},"e":[0.42,0,0.6,1]},{"t":1700,"v":{"x":50,"y":62,"type":"corner"},"e":[0.42,0,0.42,0.995]},{"t":2200,"v":{"x":50,"y":54,"type":"corner"},"e":[0.6,0,0.6,1]},{"t":2800,"v":{"x":50,"y":62,"type":"corner"},"e":[0.5,0,0.9,1]},{"t":3100,"v":{"x":50,"y":60,"type":"corner"}}],"s":[{"t":1500,"v":{"x":0.8,"y":0.8}},{"t":2000,"v":{"x":1,"y":1},"e":[0.42,0,0.58,1]},{"t":3100,"v":{"x":0.8,"y":0.8}}]}}},"e5e9h7EoDlM39":{"transform":{"keys":{"o":[{"t":1700,"v":{"x":63.771142,"y":60.103126,"type":"corner"},"e":[0.42,0,0.6,1]},{"t":1900,"v":{"x":63.771142,"y":62,"type":"corner"},"e":[0.42,0,0.42,0.995]},{"t":2400,"v":{"x":63.771142,"y":54,"type":"corner"},"e":[0.6,0,0.6,1]},{"t":3000,"v":{"x":63.771142,"y":62,"type":"corner"},"e":[0.5,0,0.9,1]},{"t":3300,"v":{"x":63.771142,"y":60,"type":"corner"}}],"s":[{"t":1700,"v":{"x":0.8,"y":0.8}},{"t":2200,"v":{"x":1,"y":1},"e":[0.42,0,0.58,1]},{"t":3300,"v":{"x":0.8,"y":0.8}}]}}},"e5e9h7EoDlM40":{"transform":{"keys":{"o":[{"t":1900,"v":{"x":78.055998,"y":60.053648,"type":"corner"},"e":[0.42,0,0.6,1]},{"t":2100,"v":{"x":78.055998,"y":62,"type":"corner"},"e":[0.42,0,0.42,0.995]},{"t":2600,"v":{"x":78.055998,"y":56.053648,"type":"corner"},"e":[0.6,0,0.6,1]},{"t":3200,"v":{"x":78.055998,"y":62,"type":"corner"},"e":[0.5,0,0.9,1]},{"t":3500,"v":{"x":78.055998,"y":60,"type":"corner"}}],"s":[{"t":1900,"v":{"x":0.8,"y":0.8}},{"t":2400,"v":{"x":1,"y":1},"e":[0.42,0,0.58,1]},{"t":3500,"v":{"x":0.8,"y":0.8}}]}}},"e5e9h7EoDlM42":{"transform":{"data":{"o":{"x":50.225752,"y":73.193661,"type":"corner"},"r":-18,"t":{"x":-50.225752,"y":-73.19366}},"keys":{"s":[{"t":300,"v":{"x":1,"y":1},"e":[0.215,0.61,0.355,1]},{"t":700,"v":{"x":1,"y":0.524384}}]}}},"e5e9h7EoDlM43":{"transform":{"data":{"t":{"x":-52.853154,"y":-71.732323}},"keys":{"o":[{"t":300,"v":{"x":62.937629,"y":69.487835,"type":"cusp","end":{"x":62.897736,"y":69.521372}},"e":[0.5,0.06,0.16,1]},{"t":1100,"v":{"x":42.747018,"y":78.141818,"type":"cusp","start":{"x":54.574295,"y":72.037373}},"e":[0.385,0.005,0.805,0.29]},{"t":1700,"v":{"x":173.797137,"y":31.551587,"type":"corner"}}],"r":[{"t":300,"v":0,"e":[0.215,0.61,0.355,1]},{"t":700,"v":8.609135}],"s":[{"t":300,"v":{"x":0.9,"y":0.9},"e":[0.42,0,0.58,1]},{"t":500,"v":{"x":0.8,"y":0.8},"e":[0.42,0,0.58,1]},{"t":700,"v":{"x":0.95,"y":0.95}},{"t":1690,"v":{"x":0.95,"y":0.95}},{"t":1700,"v":{"x":0.01,"y":0.01}}]}},"opacity":[{"t":1100,"v":1,"e":[0.385,0.005,0.805,0.29]},{"t":1690,"v":0},{"t":1700,"v":0.01}]},"e5e9h7EoDlM47":{"transform":{"data":{"o":{"x":42.739298,"y":77.415448,"type":"corner","start":{"x":44.996929,"y":77.577004}},"t":{"x":-45.955715,"y":-78.655727}},"keys":{"r":[{"t":300,"v":-30.906209,"e":[0.215,0.61,0.355,1]},{"t":700,"v":0}],"s":[{"t":300,"v":{"x":1,"y":0.351049},"e":[0.215,0.61,0.355,1]},{"t":700,"v":{"x":1,"y":1}}]}}},"e5e9h7EoDlM50":{"transform":{"data":{"t":{"x":-61.99132,"y":-66.008684}},"keys":{"o":[{"t":2300,"v":{"x":60.01132,"y":69.016259,"type":"corner","start":{"x":62.268951,"y":69.177814}},"e":[0.215,0.61,0.355,1]},{"t":2800,"v":{"x":64.01132,"y":73.016259,"type":"corner","start":{"x":66.268951,"y":73.177814}}}],"s":[{"t":2300,"v":{"x":0,"y":0},"e":[0.215,0.61,0.355,1]},{"t":2800,"v":{"x":0.9,"y":0.9}}]}}},"e5e9h7EoDlM51":{"transform":{"data":{"o":{"x":61.170235,"y":65.741081,"type":"corner","start":{"x":63.427865,"y":65.902637}},"t":{"x":-61.99132,"y":-66.008684}},"keys":{"s":[{"t":2300,"v":{"x":0,"y":0},"e":[0.215,0.61,0.355,1]},{"t":2800,"v":{"x":0.9,"y":0.9}}]}}},"e5e9h7EoDlM53":{"d":[{"t":300,"v":["M",48.65,38,"L",79.35,38,"C",82.174556,38,84.883425,39.12205,86.880687,41.119313,"C",88.87795,43.116575,90,45.825444,90,48.65,"L",90,64.2,"C",90,78.448947,78.448947,90,64.2,90,"L",48.65,90,"C",45.825444,90,43.116575,88.87795,41.119313,86.880687,"C",39.12205,84.883425,38,82.174556,38,79.35,"L",38,48.65,"C",38,42.768167,42.768168,38,48.65,38,"Z"]},{"t":900,"v":["M",48.65,38,"L",79.35,38,"C",82.174556,38,84.883425,39.12205,86.880687,41.119313,"C",88.87795,43.116575,90,45.825444,90,48.65,"L",90,72.2,"C",90,86.448947,86.448947,90,72.2,90,"L",48.65,90,"C",45.825444,90,43.116575,88.87795,41.119313,86.880687,"C",39.12205,84.883425,38,82.174556,38,79.35,"L",38,48.65,"C",38,42.768167,42.768168,38,48.65,38,"Z"]},{"t":1580,"v":["M",48.65,38,"L",79.35,38,"C",82.174556,38,84.883425,39.12205,86.880687,41.119313,"C",88.87795,43.116575,90,45.825444,90,48.65,"L",90,72.2,"C",90,86.448947,86.448947,90,72.2,90,"L",48.65,90,"C",45.825444,90,43.116575,88.87795,41.119313,86.880687,"C",39.12205,84.883425,38,82.174556,38,79.35,"L",38,48.65,"C",38,42.768167,42.768168,38,48.65,38,"Z"]},{"t":1780,"v":["M",48.65,38,"L",79.35,38,"C",82.174556,38,84.883425,39.12205,86.880687,41.119313,"C",88.87795,43.116575,90,45.825444,90,48.65,"L",90,72.2,"C",90,86.448947,86.448947,90,72.2,90,"L",48.65,90,"C",45.825444,90,43.116575,88.87795,41.119313,86.880687,"C",39.12205,84.883425,38,82.174556,38,79.35,"L",38,48.65,"C",38,42.768167,42.768168,38,48.65,38,"Z"]},{"t":2080,"v":["M",48.65,38,"L",79.35,38,"C",82.174556,38,84.883425,39.12205,86.880687,41.119313,"C",88.87795,43.116575,90,45.825444,90,48.65,"L",90,64.2,"C",90,78.448947,78.448947,90,64.2,90,"L",48.65,90,"C",45.825444,90,43.116575,88.87795,41.119313,86.880687,"C",39.12205,84.883425,38,82.174556,38,79.35,"L",38,48.65,"C",38,42.768167,42.768168,38,48.65,38,"Z"]}]},"e5e9h7EoDlM54":{"d":[{"t":800,"v":["M",48.65,38,"L",79.35,38,"C",82.174556,38,84.883425,39.12205,86.880687,41.119313,"C",88.87795,43.116575,90,45.825444,90,48.65,"L",90,61.2,"C",90,75.448947,75.448947,90,61.2,90,"L",48.65,90,"C",45.825444,90,43.116575,88.87795,41.119313,86.880687,"C",39.12205,84.883425,38,82.174556,38,79.35,"L",38,48.65,"C",38,42.768167,42.768168,38,48.65,38,"Z"]},{"t":1000,"v":["M",48.65,38,"L",79.35,38,"C",82.174556,38,84.883425,39.12205,86.880687,41.119313,"C",88.87795,43.116575,90,45.825444,90,48.65,"L",90,72.2,"C",90,86.448947,86.448947,90,72.2,90,"L",48.65,90,"C",45.825444,90,43.116575,88.87795,41.119313,86.880687,"C",39.12205,84.883425,38,82.174556,38,79.35,"L",38,48.65,"C",38,42.768167,42.768168,38,48.65,38,"Z"]},{"t":1300,"v":["M",48.65,38,"L",79.35,38,"C",82.174556,38,84.883425,39.12205,86.880687,41.119313,"C",88.87795,43.116575,90,45.825444,90,48.65,"L",90,72.2,"C",90,86.448947,86.448947,90,72.2,90,"L",48.65,90,"C",45.825444,90,43.116575,88.87795,41.119313,86.880687,"C",39.12205,84.883425,38,82.174556,38,79.35,"L",38,48.65,"C",38,42.768167,42.768168,38,48.65,38,"Z"]},{"t":1700,"v":["M",48.65,38,"L",79.35,38,"C",82.174556,38,84.883425,39.12205,86.880687,41.119313,"C",88.87795,43.116575,90,45.825444,90,48.65,"L",90,61.2,"C",90,75.448947,75.448947,90,61.2,90,"L",48.65,90,"C",45.825444,90,43.116575,88.87795,41.119313,86.880687,"C",39.12205,84.883425,38,82.174556,38,79.35,"L",38,48.65,"C",38,42.768167,42.768168,38,48.65,38,"Z"]}]},"e5e9h7EoDlM57":{"transform":{"data":{"t":{"x":-64.000011,"y":-64.000011}},"keys":{"o":[{"t":800,"v":{"x":64.000013,"y":64.000013,"type":"corner"},"e":[0.215,0.61,0.355,1]},{"t":1500,"v":{"x":77.567866,"y":113.575476,"type":"corner"}}],"r":[{"t":800,"v":0},{"t":1500,"v":-7.083077}]}},"opacity":[{"t":900,"v":1,"e":[0.215,0.61,0.355,1]},{"t":1400,"v":0}]},"e5e9h7EoDlM59":{"transform":{"data":{"r":180,"t":{"x":-81,"y":-56}},"keys":{"o":[{"t":300,"v":{"x":47,"y":56,"type":"corner"},"e":[0.42,0,0.32,0.995]},{"t":600,"v":{"x":47,"y":51,"type":"corner"}},{"t":740,"v":{"x":47,"y":51,"type":"corner"}}]}},"stroke-dasharray":[{"t":450,"v":[18,16],"e":[0.215,0.61,0.355,1]},{"t":740,"v":[32,16]}]},"e5e9h7EoDlM60":{"transform":{"data":{"t":{"x":-56,"y":-56}},"keys":{"o":[{"t":300,"v":{"x":56,"y":56,"type":"corner"},"e":[0.42,0,0.32,0.995]},{"t":600,"v":{"x":56,"y":51,"type":"corner"},"e":[1,0]}],"r":[{"t":300,"v":0,"e":[0.42,0,0.32,0.995]},{"t":600,"v":90}]}}},"e5e9h7EoDlM61":{"stroke-dashoffset":[{"t":450,"v":18,"e":[0.215,0.61,0.355,1]},{"t":740,"v":36}]},"e5e9h7EoDlM62":{"d":[{"t":300,"v":["M",69.34,79.67,"L",69.34,79.67,"C",69.342662,82.412235,68.253808,85.042775,66.313816,86.980891,"C",64.373824,88.919007,61.742231,90.005316,59,90,"L",64.2,90,"C",78.430714,89.956078,89.956078,78.430714,90,64.2,"L",90,59,"C",90.005316,61.742231,88.919007,64.373824,86.980891,66.313816,"C",85.042775,68.253808,82.412235,69.342662,79.67,69.34,"L",79.67,69.34,"C",73.967184,69.345513,69.345513,73.967184,69.34,79.67,"Z"],"e":[0.42,0,0.32,0.995]},{"t":800,"v":["M",64.495787,74.775815,"L",64.495787,74.775815,"C",64.498449,77.51805,63.529247,82.412537,61.892212,85.789219,"C",60.255177,89.165901,59.697694,90.004486,57.383701,90,"L",61.771647,90,"C",76.002361,89.956078,89.956078,76.002361,90,61.771647,"L",90,57.383701,"C",90.004486,58.52167,88.545514,60.538553,85.223396,62.131295,"C",82.97534,63.209094,77.568022,64.448477,74.825787,64.445815,"L",74.825787,64.445815,"C",69.122971,64.451328,64.5013,69.072999,64.495787,74.775815,"Z"],"e":[0.42,0,0.13,1]},{"t":1000,"v":["M",74.768858,80.646732,"L",74.770133,80.59504,"C",73.89444,83.487228,71.687245,85.687452,69.609957,87.362685,"C",67.532669,89.037918,61.742231,90.005316,59,90,"L",64.2,90,"C",78.430714,89.956078,89.956078,78.430714,90,64.2,"L",90,59,"C",90.005316,61.742231,89.009075,65.576494,87.452648,68.33048,"C",85.896221,71.084466,83.917949,72.84918,80.420758,74.423024,"L",80.420758,74.423023,"C",78.692119,75.142147,75.816202,77.401063,74.768858,80.646732,"Z"],"e":[0.42,0,1,1]}]},"e5e9h7EoDlM63":{"d":[{"t":1300,"v":["M",78.061481,89.578242,"L",78.061481,89.578242,"C",76.393606,90,72.2,90,72.2,90,"C",72.2,90,74.942231,90.005316,72.2,90,"L",72.2,90,"C",86.430714,89.956078,89.956078,86.430714,90,72.2,"L",90,72.2,"C",90.005316,74.942231,90,72.2,90,72.2,"C",90,72.2,90,79.35,88.988936,81.353894,"L",88.988936,81.353894,"C",87.551113,86.880687,84.215364,88.9456,78.061481,89.578242,"Z"],"e":[0.42,0,1,1]},{"t":1450,"v":["M",76.937732,86.880687,"L",76.937732,86.880687,"C",75.55903,87.700989,74.38804,88.423874,73.047823,88.916267,"C",71.707606,89.40866,69.662231,90.005316,66.92,90,"L",69,90,"C",83.230714,89.956078,89.956078,83.230714,90,69,"L",90,66.92,"C",90.005316,69.662231,89.660634,71.170064,89.247571,72.71652,"C",88.834508,74.262976,88.213544,75.276966,86.880687,77.689695,"L",86.880687,77.689695,"C",83.736866,81.007976,80.632267,84.219976,76.937732,86.880687,"Z"],"e":[0,0,0.58,1]},{"t":1800,"v":["M",69.34,79.67,"L",69.34,79.67,"C",69.342662,82.412235,68.253808,85.042775,66.313816,86.980891,"C",64.373824,88.919007,61.742231,90.005316,59,90,"L",64.2,90,"C",78.430714,89.956078,89.956078,78.430714,90,64.2,"L",90,59,"C",90.005316,61.742231,88.919007,64.373824,86.980891,66.313816,"C",85.042775,68.253808,82.412235,69.342662,79.67,69.34,"L",79.67,69.34,"C",73.967184,69.345513,69.345513,73.967184,69.34,79.67,"Z"],"e":[0.42,0,1,1]}],"opacity":[{"t":1300,"v":0},{"t":1320,"v":1}]}},"s":"MDLA1Y2QyNzliYJmNjYzliOGNiSYzBjNmM1NzkU5MUw4YTkwODGc4N1E4Mzc5YDmJjMFJjOWJjNYmFjYmMwYzZHjNTc5OTE4ODNgzNzljMGNiYImNjOWI4Y2JjVMGM2YzVIY2EF3OTkxODc4MzOc5YmRjMGMzYHzM3OTkxODg4QMzc5QmI4YzNMjYmJjYzljNWVI4Y2JiYzc5OTTFiZGI4UmMzJY2FiYzgzNzlAjYWM3YmNiY2LJiUzc5OTE4OUDgzNzliZGM3UY2E3OVI5MThXhODdkNA|"}],"options":"MDWAxZTkyMzk4YWThiQTc4ODk4HYjM5UzUxMzkE4YTdhODlYODUY4MzgzMzk0MCzM5OGE3YTg5BODY4MzgzMzkX1MTQ5NGM5NAI|"},'https://cdn.svgator.com/ply/','__SVGATOR_PLAYER__','2022-05-04',window,document,'script','http://www.w3.org/2000/svg','http://www.w3.org/1999/xlink')
]]></script>
</svg>
