<?xml version="1.0" encoding="UTF-8"?>
<svg version="1.1" viewBox="0 0 966 444" xmlns="http://www.w3.org/2000/svg" xmlns:cc="http://creativecommons.org/ns#" xmlns:dc="http://purl.org/dc/elements/1.1/" xmlns:rdf="http://www.w3.org/1999/02/22-rdf-syntax-ns#">
	<title>SVG Hexenkessel SMIL Animation</title>
	<desc>Glass bowl with cooking green fluid and bubbles</desc>
	<rect width="966" height="444" fill="#fff6d5" stroke-width="6.0582"/>
	<g transform="matrix(1.578 0 0 1.578 189.04 39.699)">
		<circle r="18.97" fill="hsla(120,60%,50%,0.5)">
			<animateMotion dur="18s" repeatCount="indefinite" values="162,154; 162,-200"/>
		</circle>
		<circle cx="225" cy="19" r="16" fill="hsla(120,60%,30%,0.5)">
			<animateMotion dur="20s" repeatCount="indefinite" values="0,160; 0,-200"/>
		</circle>
		<circle cx="240" cy="98" r="13" fill="hsla(120,60%,30%,0.5)">
			<animateMotion dur="15s" repeatCount="indefinite" values="0,98; 0,-100"/>
		</circle>
		<g fill="hsla(120,70%,70%,0.5)">
			<circle r="16">
				<animateMotion dur="15s" repeatCount="indefinite" values="343,113; 343,-113"/>
			</circle>
			<circle r="8">
				<animateMotion dur="12s" repeatCount="indefinite" values="82,-300; 82,500"/>
			</circle>
			<circle r="12">
				<animateMotion dur="20s" repeatCount="indefinite" values="400,-100; 400,500"/>
			</circle>
		</g>
		<circle r="8" fill="hsla(118,70%,90%,0.7)">
			<animateMotion dur="8s" repeatCount="indefinite" values="50,-200; 50,100"/>
		</circle>
	</g>
	<g stroke-width="1.578">
		<g transform="translate(220 66) scale(1.45)">
		<path d="m353.15 243.58c3.1561 91.527 77.955 164.12 169.48 164.12 91.527 0 166.8-72.59 169.8-164.12 0 0-51.444 36.768-116.3 48.919-37.4 6.9434-66.436-26.827-112.83-40.871-46.395-13.887-110.15-7.8902-110.15-7.8902z" fill="#393">
			<animate attributeName="d" dur="15000ms" repeatCount="indefinite" values="m104 129.2c2 58 49.4 104 107.4 104 58 0 105.7-46 107.6-104 0 0-32.6 23.3-73.7 31-23.7 4.4-42.1-17-71.5-25.9-29.4-8.8-69.8-5-69.8-5z; m103.9 129.2c1.9 58 49.4 104.1 107.4 104.2 58.1 0 105.7-46.1 107.6-104.2 0 0-33.8-8.5-74.9-.8-23.7 4.4-42.9 35.3-72.3 26.4-29.4-8.8-67.8-25.6-67.8-25.6z; m104 129.2c2 58 49.4 104 107.4 104 58 0 105.7-46 107.6-104 0 0-32.6 23.3-73.7 31-23.7 4.4-42.1-17-71.5-25.9-29.4-8.8-69.8-5-69.8-5z"/>
		</path>
		<path d="m353 243.58c2.9983 91.527 77.955 164.27 169.48 164.43 91.684 0 166.8-72.748 169.8-164.43 0 0-53.338-13.413-118.2-1.2624-37.4 6.9434-67.698 55.705-114.09 41.66-46.395-13.887-106.99-40.398-106.99-40.398z" fill="#6c6">
			<animate attributeName="d" dur="8000ms" repeatCount="indefinite" values="m103.9 129.2c1.9 58 49.4 104.1 107.4 104.2 58.1 0 105.7-46.1 107.6-104.2 0 0-33.8-8.5-74.9-.8-23.7 4.4-42.9 35.3-72.3 26.4-29.4-8.8-67.8-25.6-67.8-25.6z; m104 129.2c2 58 49.4 104 107.4 104 58 0 105.7-46 107.6-104 0 0-32.6 23.3-73.7 31-23.7 4.4-42.1-17-71.5-25.9-29.4-8.8-69.8-5-69.8-5z; m103.9 129.2c1.9 58 49.4 104.1 107.4 104.2 58.1 0 105.7-46.1 107.6-104.2 0 0-33.8-8.5-74.9-.8-23.7 4.4-42.9 35.3-72.3 26.4-29.4-8.8-67.8-25.6-67.8-25.6z"/>
		</path>
		</g>
		<path d="m377.14 150.68a169.96 169.96 0 0 0-24.46 87.376 169.96 169.96 0 0 0 169.8 169.96 169.96 169.96 0 0 0 169.96-169.96 169.96 169.96 0 0 0-24.46-87.376z" fill="hsla(270,80%,70%,0.3)"/>
		<rect x="361.67" y="124.19" width="325.08" height="36.784" ry="14.071" fill="#93b4b7"/>
		<path d="m519.16 150.68v257.38a169.96 169.96 0 0 0 3.3139 0 169.96 169.96 0 0 0 169.96-169.96 169.96 169.96 0 0 0-24.46-87.376h-148.81z" fill="hsla(270,80%,70%,0.3)" opacity=".4"/>
		<circle cx="381.72" cy="231.43" r="24.933" fill="#f9f9f9" opacity=".2"/>
		<path d="m608.8 150.68a184.63 190.79 0 0 1 0.31562 8.1427 184.63 190.79 0 0 1-184.63 190.63 184.63 190.79 0 0 1-32.823-3.1561 169.96 169.96 0 0 0 130.82 61.702 169.96 169.96 0 0 0 169.96-169.96 169.96 169.96 0 0 0-24.46-87.376h-59.177z" fill="hsla(0,0%,100%,0.1)"/>
		<path d="m519.16 124.19v36.753h153.54c7.8902 0 13.887-6.2648 13.887-14.076v-8.6161c0-7.7956-5.9966-14.06-13.887-14.06z" fill="#4d9fa6"/>
		<path d="m380.14 355.15c-7.7324 0-14.045 4.892-14.045 12.624 0 7.8902 6.3122 12.151 14.045 12.151h13.729v32.981c-7.1012 1.8936-11.835 8.2058-11.835 15.307 0 9.1527 7.4168 16.254 16.254 16.254 8.8371 0 16.412-7.1012 16.412-16.254 0-0.31561-0.47341-0.94683-0.47341-1.578 0.47341-0.31561 0.47341-0.47342 0.47341-0.94683v-45.763h93.736v35.979c-3.6295 3.1561-5.681 7.5746-5.681 12.309 0 8.9949 7.1012 16.254 15.938 16.254 2.0515 0 3.4717-0.1578 4.7341-0.78902v-88.528z" fill="#444"/>
		<path d="m520.74 355.15v89.317c7.8902-1.2624 14.045-7.8902 14.045-16.254 0-4.7341-2.0515-9.1527-5.8388-12.309v-35.979h94.367v48.288c0 8.9949 7.1012 16.254 15.938 16.254 8.9949 0 16.096-7.259 16.096-16.254 0-6.7856-4.7341-13.098-11.362-15.307v-32.981h13.098c8.048 0 14.202-4.2607 14.202-12.151 0-7.7324-6.1544-12.624-14.202-12.624z" fill="#333"/>
		<path d="m553.09 115.04c-6.7856 0-12.309 5.3811-12.309 12.151v90.675c0 16.885 13.098 30.456 30.456 30.456h8.5214c16.885 0 29.983-13.571 29.983-30.456v-90.675c0-6.7698-5.2076-12.151-11.678-12.151z" fill="#7bd348"/>
		<ellipse cx="557.67" cy="136.99" rx="8.2453" ry="8.9317" fill="#b5e699"/>
		<path d="m418.33 112.26c-4.1029 0-7.4168 3.3928-7.4168 7.6062 0 24.381 0.63122 48.257 0.63122 72.795 0 7.6851 5.5232 13.997 13.571 13.997h0.3156c7.5746 0 14.045-6.3122 14.045-13.997v-46.852c0-3.7715 2.9983-5.8861 6.6278-6.3911h0.78902c4.7341 0.47342 6.7856 2.2093 6.7856 6.5331v10.825c0.31561 18.29 0.31561 36.516 0.31561 55.09 0 9.6261 7.1012 17.359 17.043 17.359h0.31561c9.4683 0 17.832-7.7324 17.832-17.359 0.63122-30.456-0.47342-60.06-0.47342-90.091 0-5.2076-4.1029-9.3578-9.4683-9.3578h-60.913z" fill="#b5e699"/>
		<ellipse cx="426.53" cy="130.12" rx="8.2453" ry="8.9317" fill="#d7f2c8"/>
		<path d="m222.73 432.52c-7.259 0-13.413 4.2607-16.254 10.415h140.68c-2.9194-6.1544-9.0738-10.415-16.333-10.415z" fill="#469c41"/>
		<path d="m675.23 432.52c-7.259 0-13.413 4.2607-16.254 10.415h124.98c-2.9983-6.1544-9.1527-10.415-16.412-10.415z" fill="#469c41"/>
		<path d="m739.14 432.52c-8.3636 0-15.623 5.0498-18.937 12.151h225.65c-3.4717-7.1012-10.731-12.151-19.094-12.151z" fill="#62bc5d"/>
	</g>
	<g fill="#469c41">
		<path d="m5.8065 432.52c-3.6664 0-6.7749 4.2607-8.2096 10.415h71.057c-1.4745-6.1544-4.583-10.415-8.2495-10.415z" stroke-width="1.1215"/>
		<path d="m91.122 426.64c-3.6664 0-6.7749 6.6677-8.2096 16.299h71.057c-1.4745-9.6312-4.583-16.299-8.2495-16.299z" stroke-width="1.403"/>
		<path d="m427.48 427.62c-3.6664 0-6.775 7.4701-8.2096 18.26h71.057c-1.4746-10.79-4.583-18.26-8.2495-18.26z" stroke-width="1.485"/>
	</g>
	<metadata>
		<rdf:RDF>
			<cc:Work rdf:about="">
				<dc:title>SVG Hexenkessel SMIL Animation</dc:title>
			</cc:Work>
		</rdf:RDF>
	</metadata>
</svg>
